<?xml version="1.0" encoding="utf-8"?>
<!-- Generator: Adobe Illustrator 22.1.0, SVG Export Plug-In . SVG Version: 6.00 Build 0)  -->
<svg version="1.1" id="Слой_1" xmlns="http://www.w3.org/2000/svg" xmlns:xlink="http://www.w3.org/1999/xlink" x="0px" y="0px"
	 viewBox="0 0 99 100" style="enable-background:new 0 0 99 100;" xml:space="preserve">
<style type="text/css">
	.st0{fill:#FFFFFF;}
</style>
<path id="_3.svg" class="st0" d="M94.9,52.1C94.9,52.1,94.9,52.1,94.9,52.1C94.8,52.1,94.8,52.1,94.9,52.1l-3.1-1.8
	c1.1-7.1-2.2-14.2-8.5-17.7c0,0,0,0,0,0l0,0l0,0c0,0-0.1,0-0.1,0c0,0-0.1,0-0.1-0.1h0c-0.1-0.1-0.3-0.1-0.4-0.2
	c-0.4-4.2-2.4-8-5.6-10.7l0,0c-1.7-1.4-3.7-2.1-5.8-2.2c-1.5-5.4-7-8.5-12.4-7c-1.1,0.3-2.2,0.8-3.1,1.5c-1.6-2.6-4.4-4.2-7.5-4.3
	c-4.5-0.2-8.5,3-9.3,7.5v0c0,0,0,0,0,0l-0.3,2.5l-4.4-2.5c-1.4-0.9-2.4-2.4-2.6-4.1v0c-0.8-5.3-3.8-9.7-7.9-11.7
	c-4.2-2.1-9.4-1.9-14.2,0.5c0,0,0,0,0,0c0,0,0,0,0,0c0,0-0.1,0-0.1,0.1c0,0,0,0,0,0C8.6,2.6,8.1,3.5,8.1,4.5c0,1,0.5,2,1.4,2.6h0
	l9.6,5.5c0.6,1.9,0.3,4-0.7,5.8c-1.1,1.8-2.9,3-4.9,3.4l-9.2-5.3l0,0v0c-0.9-0.5-2.1-0.5-3,0C0.5,17.1,0,18.1,0,19.1l0,0
	c0.1,2.4,0.8,4.8,2,6.9c2.2,4,6.2,6.7,10.8,7.3c0.5,0.1,1.1,0.1,1.7,0.1c2.1,0,4.2-0.4,6.2-1.2c0,0,0,0,0,0c0,0,0,0,0,0
	c1.5-0.6,3.3-0.6,4.7,0.3l3,1.8l-1.8,3.2c0,0,0,0,0,0l0,0C23.4,42.6,23,49,25.4,54.6c0,0,0,0,0,0c0,0,0,0,0,0l7.3,15.7h0
	c0.8,1.7,1.1,3.6,0.8,5.5L33.1,79l-0.7,3.2l-0.3,1.5h-0.5c-2.1,0-3.9,1.4-4.5,3.3v0l-1,3.4l-1.2,3.3L23.5,97v0l0,0v0
	c0,0.1-0.1,0.1-0.1,0.2c0,0,0,0,0,0.1c0,0,0,0.1,0,0.1s0,0.1,0,0.1s0,0.1,0,0.1c0,0.1,0,0.1,0,0.2v0l0,0c0,0.1,0,0.1,0,0.2v0l0,0.2
	c0,0.2,0.1,0.4,0.2,0.6c0,0,0,0,0,0c0,0,0,0.1,0.1,0.1c0,0,0,0.1,0.1,0.1c0,0,0,0,0.1,0.1c0,0,0.1,0.1,0.1,0.1l0,0
	c0.1,0.2,0.3,0.3,0.5,0.4l0.2,0.1c0,0,0,0,0,0l0,0c0.1,0,0.1,0.1,0.2,0.1l0,0c0,0,0,0,0,0c0.1,0,0.1,0,0.2,0.1c0,0,0.1,0,0.1,0
	l0.1,0c0.1,0,0.1,0,0.2,0c0,0,0,0,0,0c0.1,0,0.1,0,0.2,0h44c1.1,0,2-0.8,2.1-1.8c0-0.1,0-0.2,0-0.3c0-2.8,0.4-5.6,1.1-8.4l0,0
	c0.4-1.4,0.1-2.9-0.8-4c-0.4-0.6-1-1-1.7-1.3c0.2-0.5,0.4-1.1,0.6-1.6l0,0c0.7-1.6,1.8-3,3.2-4c0,0,0,0,0,0l0,0l0,0
	c4.2-3.4,7.7-7.5,10.4-12.1l1.4,0.8l0.1,0c0,0,0,0,0,0c0,0,0,0,0,0c0,0,0,0,0.1,0c2,1,4.3,1.2,6.5,0.6c4.7-1.3,7.4-6.2,6.1-10.9
	C98.1,55.1,96.7,53.3,94.9,52.1z M87.7,48l-2.3-1.3c0.1-1.2-0.7-2.3-1.9-2.4c-1.1-0.1-2.2,0.7-2.4,1.8c-0.6,3.8-2.9,7.1-6.3,9
	c-1.1,0.5-2.5,0.3-3.4-0.6c-0.9-0.8-1.2-2.1-0.7-3.3l5.6-12.8l0,0c0.8-1.9,3-2.8,4.9-2C85.4,38.8,87.8,43.2,87.7,48L87.7,48z
	 M78.3,32c-0.5,0.1-1,0.2-1.4,0.4c-2,0.8-3.7,2.3-4.5,4.3l0,0v0l0,0l-5,11.5c-0.9,1-2.3,1.4-3.6,0.9c-1.4-0.5-2.3-1.8-2.3-3.2
	c0.1-2.2,0.4-4.4,0.9-6.6l0,0c0.9-4.4,2.3-8.7,4.3-12.7c0.7-1.4,1.9-2.4,3.4-2.7c1.5-0.3,3,0.1,4.2,1.1l0,0
	C76.5,26.8,77.9,29.2,78.3,32L78.3,32z M63.1,16.7c1.9,0.5,3.4,1.9,3.9,3.8c-1.8,0.9-3.3,2.4-4.2,4.2c-2.2,4.4-3.8,9-4.7,13.8
	c-0.1,0.7-0.3,1.4-0.4,2.1c-1,0.9-2.5,1.3-3.8,0.9c-1-0.3-1.8-0.9-2.3-1.7c2.6-1.2,4.8-3.1,6.4-5.4h0c2-2.9,1.3-6.8-1.6-8.8
	c-0.6-0.4-1.2-0.7-1.8-0.9c0.5-2,1.2-3.9,2.2-5.7C58.1,17,60.7,16,63.1,16.7L63.1,16.7z M48.2,14c2.1,0.1,4,1.5,4.5,3.6
	c-1.1,2-1.9,4.2-2.4,6.4c-0.6-0.1-1.3-0.1-1.9-0.1l0,0c-0.4,0-0.7,0-1.1-0.2h0l-4.6-1.4l0.6-4.5C43.7,15.5,45.8,13.9,48.2,14z
	 M27.5,28.7L27.5,28.7c-2.6-1.5-5.7-1.7-8.5-0.5h0c-1.8,0.7-3.8,1-5.7,0.8c-3.2-0.4-5.9-2.3-7.5-5.1c-0.4-0.7-0.7-1.4-0.9-2.2
	l6.8,3.9h0c0,0,0.1,0.1,0.1,0.1c0.5,0.3,1.1,0.4,1.6,0.4c0.2,0,0.4,0,0.7-0.1h0c6.3-1,10.6-6.9,9.6-13.2c-0.1-0.7-0.3-1.4-0.5-2
	c0,0,0,0,0,0c-0.3-0.8-0.9-1.5-1.6-1.9h0l-7.2-4.2c2.5-0.8,5.2-0.6,7.6,0.5c2.9,1.4,4.9,4.6,5.6,8.5v0l0,0c0.4,3,2.1,5.6,4.7,7.2h0
	l3.6,2.1c-1.2,0.7-2.1,1.7-2.8,2.9l0,0l-2.5,4.4L27.5,28.7z M67.2,88c0.1,0,0.1,0,0.2,0s0.2,0,0.2,0h0.6c0.1,0,0.2,0,0.3,0.1
	c0.1,0.1,0.1,0.2,0,0.3l0,0c-0.6,2.4-1,4.8-1.2,7.3H28.7l0.2-0.4c0,0,0-0.1,0-0.1l1.2-3.4c0,0,0-0.1,0-0.1l1.1-3.4v0l0,0
	c0-0.1,0.2-0.2,0.3-0.2H67.2L67.2,88z M71.4,75.2L71.4,75.2c-2,1.5-3.5,3.5-4.5,5.7l0,0c-0.4,0.9-0.8,1.8-1.1,2.8H36.5l0.1-0.6
	c0,0,0,0,0-0.1l0.7-3.3c0,0,0-0.1,0-0.1l0.5-3.3l0,0v0c0.4-2.7,0-5.4-1.2-7.9l0,0l-7.3-15.6c-1.8-4.3-1.5-9.3,0.9-13.3l0,0
	c0,0,0,0,0,0l2.8-4.9l0.1-0.2c0-0.1,0.1-0.1,0.1-0.2l3.5-6.2l0,0c0.7-1.2,2-1.9,3.4-1.9h0.2c0.3,0,0.6,0.1,0.9,0.2l0,0l4.9,1.5l0,0
	c0.7,0.2,1.5,0.3,2.3,0.3l0,0c1.7,0,3.3,0.3,4.9,0.7l0,0c0.6,0.2,1.2,0.6,1.4,1.2c0.2,0.6,0.1,1.3-0.2,1.9h0c-1.5,2.1-3.6,3.7-6,4.4
	c-0.1,0-0.2,0.1-0.3,0.1c-0.3,0.1-0.7,0.2-1,0.2c-3,0.5-6.1-0.1-8.6-1.9c-1-0.7-2.3-0.5-3,0.5c-0.7,1-0.5,2.3,0.5,3c0,0,0,0,0,0
	c1.6,1.1,3.4,1.9,5.3,2.4c-0.8,2.7-2.5,5-4.8,6.6c-0.8,0.6-0.9,1.7-0.4,2.4s1.7,0.9,2.4,0.4l0,0c3-2.2,5.2-5.4,6.2-8.9
	c0.1,0,0.3,0,0.4,0c0.8,0,1.6-0.1,2.4-0.2c1,2.2,3,3.9,5.4,4.6c0.7,0.2,1.5,0.3,2.3,0.3c0.7,0,1.4-0.1,2.1-0.3c0,0,0,0.1,0,0.1v0.1
	c0,3.3,2,6.3,5.2,7.4c0.8,0.3,1.7,0.4,2.6,0.4c0.5,0,1,0,1.4-0.1c0.3,1.6,1.1,3,2.2,4.1c1.1,1,2.4,1.6,3.8,1.9l8.3,4.8
	C78.3,68.5,75.1,72.1,71.4,75.2z M94.1,61.8c-1.2,2.1-3.9,2.8-6,1.8L78.3,58c2.5-1.8,4.6-4.2,5.8-7.1l8.4,4.9
	C94.6,57.1,95.3,59.7,94.1,61.8z"/>
</svg>

