<?xml version="1.0" encoding="utf-8"?>
<!-- Generator: Adobe Illustrator 22.1.0, SVG Export Plug-In . SVG Version: 6.00 Build 0)  -->
<svg version="1.1" id="Слой_1" xmlns="http://www.w3.org/2000/svg" xmlns:xlink="http://www.w3.org/1999/xlink" x="0px" y="0px"
	 viewBox="0 0 65 100" style="enable-background:new 0 0 65 100;" xml:space="preserve">
<style type="text/css">
	.st0{fill:#FFFFFF;}
</style>
<path id="Money.svg" class="st0" d="M58.7,64.6H46.1v6.3c0,5.4-4.4,9.8-6.3,11.4v3.2H44V100H0V85.4h4.2V54.2c0-5.1,1.8-7.1,4.9-9.9
	l9.8-7.8V6.3c0-3.5,2.8-6.3,6.3-6.3h33.5C62.2,0,65,2.8,65,6.3v52.1C65,61.8,62.2,64.6,58.7,64.6z M4.2,89.6v6.3h35.6v-6.3H4.2z
	 M18.9,52.1V41.8l-7.1,5.6c-2.7,2.5-3.4,3.5-3.4,6.7v31.2h27.3v-5.2l0.8-0.6c0.1,0,5.5-4.2,5.5-8.8v-6.3h-8.4v2.1
	c0,7.7-5.6,10.4-10.5,10.4v-4.2c2.9,0,6.3-1.1,6.3-6.3v-7.1l5.8-5.8c2.1-2.8,1-6.8-0.8-8.4c-0.8-0.7-1.1-0.4-1.4-0.2L16.2,61.9
	l-3-2.9l6.9-6.9L18.9,52.1L18.9,52.1z M23.1,6.3v42.9l6.9-6.9c2-2,4.8-2,7.1,0c3.5,3.1,4.8,9.7,1.2,14.2l-0.2,0.2l-3.8,3.8h15.9V4.2
	H25.2C24,4.2,23.1,5.1,23.1,6.3z M60.8,6.3c0-1.2-0.9-2.1-2.1-2.1h-4.2v56.3h4.2c1.2,0,2.1-0.9,2.1-2.1V6.3z"/>
</svg>

