<?xml version="1.0" encoding="utf-8"?>
<!-- Generator: Adobe Illustrator 22.1.0, SVG Export Plug-In . SVG Version: 6.00 Build 0)  -->
<svg version="1.1" id="Слой_1" xmlns="http://www.w3.org/2000/svg" xmlns:xlink="http://www.w3.org/1999/xlink" x="0px" y="0px"
	 viewBox="0 0 86 100" style="enable-background:new 0 0 86 100;" xml:space="preserve">
<style type="text/css">
	.st0{fill:#FFFFFF;}
</style>
<path id="_1.svg" class="st0" d="M28.4,33.2c0,6.7-5.5,12.1-12.1,12c-6.7,0-12.1-5.5-12-12.1c0-6.7,5.4-12,12.1-12
	C23,21.1,28.4,26.5,28.4,33.2z M8.1,33.2c0,4.5,3.7,8.2,8.2,8.2c4.5,0,8.2-3.7,8.2-8.2c0-1.4-0.3-2.7-1-3.9l-6.1,5.3
	c-0.7,0.6-1.8,0.5-2.5-0.2c-0.6-0.7-0.5-1.8,0.2-2.5c0,0,0,0,0,0l6.1-5.2c-1.4-1.1-3.1-1.7-4.9-1.7C11.8,25,8.1,28.6,8.1,33.2z
	 M86,9.3c-0.7,6.1-5.8,10.7-11.9,10.8h-9.2v13h8.7c0.2,0,0.3,0,0.5-0.1h0c6.1,0.1,11.2,4.7,11.9,10.8c0.1,0.6-0.1,1.3-0.5,1.8
	c0,0,0,0.1-0.1,0.1c0,0,0,0,0,0.1c-0.4,0.5-1.1,0.8-1.7,0.8H71.1v51.1c0,1.3-1.1,2.4-2.4,2.4c-1.3,0-2.4-1.1-2.4-2.4c0,0,0,0,0,0V51
	h-5.4v46.6c0,1.3-1,2.4-2.3,2.4s-2.4-1-2.4-2.3c0,0,0-0.1,0-0.1v-49c0-1.3,1.1-2.4,2.4-2.4c0,0,0,0,0,0h1.5V17.7
	c0-1.3,1.1-2.4,2.4-2.4H74c0,0,0,0,0,0c2.7-0.1,5.2-1.6,6.4-3.9H68.8c-1.3,0-2.4-1.1-2.4-2.4V4.8H36.3L8.4,12
	c-1.6,0.4-2.9,1.7-3.4,3.3h38.4c1.3,0,2.4,1.1,2.4,2.4c0,0,0,0,0,0v2.5h2.4c1,0,1.7,0.8,1.7,1.7c0,1-0.8,1.7-1.7,1.7h-2.4v6.2h2.4
	c1,0,1.8,0.8,1.8,1.8s-0.8,1.8-1.8,1.8h-2.4v6.2h2.4c1,0,1.7,0.8,1.7,1.7c0,1-0.8,1.7-1.7,1.7h-2.4v3.3h1.5c1.3,0,2.4,1.1,2.4,2.4
	c0,0,0,0,0,0v49c0,1.3-1,2.4-2.3,2.4s-2.4-1-2.4-2.3c0,0,0-0.1,0-0.1v-3.8h-2.5c-1,0-1.7-0.8-1.7-1.7c0-1,0.8-1.7,1.7-1.7h2.5v-3.8
	h-2.5c-1,0-1.8-0.8-1.8-1.8s0.8-1.8,1.8-1.8h2.5v-3.8h-2.5c-1,0-1.7-0.8-1.7-1.7c0-1,0.8-1.7,1.7-1.7h2.5v-3.8h-2.5
	c-1,0-1.7-0.8-1.7-1.7c0-1,0.8-1.7,1.7-1.7h2.5v-3.8h-2.5c-1,0-1.7-0.8-1.7-1.7c0-1,0.8-1.7,1.7-1.7h2.5v-3.8h-2.5
	c-1,0-1.7-0.8-1.7-1.7c0-1,0.8-1.7,1.7-1.7h2.5V51H5.3c0.3,1.9,1.7,3.5,3.6,4l0,0l23.2,6c0,0,0,0,0,0l0,0c3.2,0.8,5.4,3.7,5.4,7
	v29.6c0,1.3-1.1,2.4-2.4,2.4c-1.3,0-2.4-1.1-2.4-2.4c0,0,0,0,0,0V68c0-1.1-0.7-2.1-1.8-2.4h0c0,0,0,0,0,0l-23.2-6l0,0
	c-4.2-1.1-7.2-4.9-7.2-9.3v-1.6c0-1.3,1.1-2.4,2.4-2.4h38.1V20H2.4C1.1,20,0,18.9,0,17.6v-1c0-4.4,2.9-8.2,7.2-9.3l0,0l28.2-7.3
	c0,0,0,0,0,0c0,0,0.1,0,0.1,0c0,0,0.1,0,0.1,0c0,0,0.1,0,0.1,0c0,0,0.1,0,0.1,0h32.9c1.3,0,2.4,1.1,2.4,2.4c0,0,0,0,0,0v4.3h12.3
	c0.2,0,0.4,0,0.5,0C85.2,6.8,86.2,8,86,9.3z M64.9,46.3h1.5v-2.1c0-1.3,1.1-2.4,2.4-2.4h11.7c-1.2-2.3-3.5-3.8-6.1-4
	c-0.1,0-0.2,0-0.4,0h-9.1L64.9,46.3L64.9,46.3z"/>
</svg>

