<?xml version="1.0" encoding="utf-8"?>
<!-- Generator: Adobe Illustrator 22.1.0, SVG Export Plug-In . SVG Version: 6.00 Build 0)  -->
<svg version="1.1" id="Слой_1" xmlns="http://www.w3.org/2000/svg" xmlns:xlink="http://www.w3.org/1999/xlink" x="0px" y="0px"
	 viewBox="0 0 79 100" style="enable-background:new 0 0 79 100;" xml:space="preserve">
<style type="text/css">
	.st0{fill:#FFFFFF;}
</style>
<path id="Choise.svg" class="st0" d="M72.8,100H6.2C2.8,100,0,97.2,0,93.8V16.7c0-3.4,2.8-6.2,6.2-6.3h8.3v4.2H6.2
	c-1.1,0-2.1,0.9-2.1,2.1v77.1c0,1.1,0.9,2.1,2.1,2.1h66.5c1.1,0,2.1-0.9,2.1-2.1V16.7c0-1.1-0.9-2.1-2.1-2.1h-8.3v-4.2h8.3
	c3.4,0,6.2,2.8,6.2,6.3v77.1C79,97.2,76.2,100,72.8,100z M70.7,91.7H8.3V18.8h6.2v4.2h-2.1v64.6h54.1V22.9h-2.1v-4.2h6.2V91.7z
	 M62.4,25H16.6v-8.3c0-4.6,3.7-8.3,8.3-8.3h4.4c1.1-5.6,6.6-9.3,12.2-8.1c4.1,0.8,7.3,4,8.1,8.1h4.4c4.6,0,8.3,3.7,8.3,8.3L62.4,25
	L62.4,25z M20.8,20.8h37.4v-4.2c0-2.3-1.9-4.2-4.2-4.2h-8.3v-2.1c0-3.4-2.8-6.2-6.2-6.2c-3.4,0-6.2,2.8-6.2,6.2c0,0,0,0,0,0v2.1
	h-8.3c-2.3,0-4.2,1.9-4.2,4.2V20.8L20.8,20.8z M41.6,12.5h-4.2V8.3h4.2V12.5z M26.1,46.2c-0.5,0-1-0.2-1.4-0.5l-5.3-4.5
	c-0.9-0.7-1-2.1-0.2-2.9c0.7-0.9,2.1-1,2.9-0.2l0,0l3.7,3.2l5.8-7.1c0.7-0.9,2-1,2.9-0.3c0.9,0.7,1,2,0.3,2.9c0,0,0,0,0,0l-7.2,8.7
	c-0.4,0.4-0.9,0.7-1.4,0.7C26.2,46.2,26.1,46.2,26.1,46.2L26.1,46.2z M26.1,62.9c-0.5,0-1-0.2-1.4-0.5l-5.3-4.5
	c-0.9-0.8-0.9-2.1-0.2-2.9c0.7-0.8,2-0.9,2.9-0.2l3.7,3.2l5.8-7.1c0.7-0.9,2-1,2.9-0.3c0.9,0.7,1,2,0.3,2.9c0,0,0,0,0,0l-7.2,8.7
	c-0.4,0.4-0.9,0.7-1.4,0.7C26.2,62.9,26.1,62.9,26.1,62.9L26.1,62.9z M26.1,79.5c-0.5,0-1-0.2-1.4-0.5l-5.3-4.5
	c-0.9-0.8-1-2.1-0.2-2.9c0.7-0.9,2-1,2.9-0.2l3.7,3.2l5.8-7.1c0.7-0.9,2-1,2.9-0.3c0.9,0.7,1,2,0.3,2.9c0,0,0,0,0,0l-7.2,8.7
	c-0.4,0.4-0.9,0.7-1.4,0.7C26.2,79.5,26.1,79.5,26.1,79.5L26.1,79.5z M58.2,41.7H43.7c-1.2,0-2.1-1-2-2.1c0-1.1,0.9-2,2-2h14.6
	c1.2,0,2.1,1,2,2.1C60.2,40.7,59.3,41.6,58.2,41.7L58.2,41.7z M58.2,58.3H43.7c-1.2,0-2.1-0.9-2.1-2.1c0-1.1,0.9-2.1,2.1-2.1h14.6
	c1.2,0,2.1,0.9,2.1,2.1C60.3,57.4,59.4,58.3,58.2,58.3L58.2,58.3z M58.2,75H43.7c-1.2,0-2.1-1-2-2.1c0-1.1,0.9-2,2-2h14.6
	c1.2,0,2.1,1,2,2.1C60.2,74.1,59.3,75,58.2,75L58.2,75z"/>
</svg>

